<svg id="Layer_1" data-name="Layer 1" xmlns="http://www.w3.org/2000/svg" viewBox="0 0 1196 1194"><title>GHLogoArtboard 1</title><path d="M378.55,581.69l15.72-7.86V572q-2.87,1.36-5.78,2.7v1.82Q385.44,576.56,378.55,581.69Z"/><path d="M33,771.69q3.63-32.22,9.08-59.9,3.63-8.17,3.63-23.6V673.67q0-3.63,21.78-56.27,4.53,0,20-34.49,43.57-69,114.36-196,14.06-30.4,61.72-104.83,29.49-47.65,52.64-72.61v1.82l3.63-1.82a14.33,14.33,0,0,0,7.26,1.82,1.61,1.61,0,0,1,1.81-1.82q0,5.45,14.52,14.52h5.45v1.82q17.24,0,41.75,1.81,59-3.63,90.76-3.63a13.93,13.93,0,0,0,5.45-1.82q27.68,3.64,30.86,7.26a1.61,1.61,0,0,0,1.81-1.82,13.87,13.87,0,0,0,5.45,1.82V233q-38.12-5.89-38.12-7.26l-3.63,1.81H481.4a1.6,1.6,0,0,1-1.82-1.81q-3.18,1.82-9.08,1.81v1.82q14.52,0,14.52,1.82a14,14,0,0,1,5.45-1.82q38.12,5.45,38.12,10.89-7.26,16.34-7.26,21.78a1.6,1.6,0,0,0,1.82,1.82q0,23.6-7.26,23.6v1.81l3.63,5.45v1.81l-1.81,3.63q3.17,0,7.26,10.89a1.61,1.61,0,0,1,1.82,1.81q-20,29-76.24,29l-7.26,1.82a1.6,1.6,0,0,1-1.82-1.82l-21.78,1.82q-12.25,0-54.46-3.63-5.9,0-29,47.2l-32.67,44.93q-16.34,27.69-16.34,36.31-30,62.18-123.44,216,0,1.36-18.15,29,30.28-13.11,229-129.78H374c0-2.72,3.46-5.45,10.34-8.18H341.63q-2.28,0-9.08-14.52v-20l1.82-12.71q-3.64,0-7.26-27.23a1.61,1.61,0,0,1,1.81-1.81l-1.81-9.08V477.62q0-13.61,14.52-18.15l3.63,1.81a14,14,0,0,1,5.45-1.81v1.81l3.63-1.81h16.34a14.36,14.36,0,0,0,7.26-1.82l3.63,1.82a14.41,14.41,0,0,1,7.26-1.82v1.82a14,14,0,0,1,5.45-1.82l3.63,1.82,3.63-1.82a13.87,13.87,0,0,0,5.45,1.82v-1.82l3.63,1.82h32.68q9.07.46,9.08,3.63l3.63-1.82H481.4a1.61,1.61,0,0,1,1.82,1.82l3.63-1.82h29a56.09,56.09,0,0,0,14.52-1.81,59.52,59.52,0,0,0,14.52,1.81h5.45l18.15-1.81a1.6,1.6,0,0,0,1.82,1.81L567,483.79q14-4.72,28.41-8.89,39.93-12.7,116.18-21.78,76.69-138.41,99.84-174.27,19.51-31.31,39.94-52.64V228l3.63-1.81a14.34,14.34,0,0,0,7.26,1.81,1.6,1.6,0,0,1,1.81-1.81q0,4.08,9.08,10.89,3.63,0,3.63,5.45l5.45-3.63h1.82q-3.64,11.81-3.63,16.34a1.61,1.61,0,0,1,1.81,1.82,1.6,1.6,0,0,0-1.81,1.82h1.81l9.08-1.82-1.81,3.63v1.81h1.81c0-3.63,1.21-5.45,3.63-5.45q0,7.26,3.63,7.26c0-3.63,1.21-5.45,3.63-5.45L904,269.78h3.63v-3.63q2.72,0,5.45,9.08,1.81,0,10.89-7.26,3.63.46,3.63,3.63v10.89l-1.82,3.63h1.82q-14.07,48.57-74.43,147,0,4.08-7.26,12.71-5.45,7.26-5.45,14.52,55.36,9.08,81.69,18.15A1023.18,1023.18,0,0,1,989.34,366l78.73-138.32C958.75,89,789.27,0,599,0,269.29,0,2,267.29,2,597A596.6,596.6,0,0,0,30.45,779.59,14.52,14.52,0,0,0,33,771.69Z"/><path d="M49.37,704.53l-5.45,9.08h3.63q0-3.17,3.63-9.08Z"/><path d="M391.48,572h-2.66a3.68,3.68,0,0,1-.92,2.73h.58A22.32,22.32,0,0,1,391.48,572Z"/><path d="M1107.33,380.51q0,24.06-128.88,228.72,0,3.18-63.53,116.18Q876.34,789,853.2,812.55v-1.82l-3.63,1.82a14.43,14.43,0,0,0-7.26-1.82,1.61,1.61,0,0,1-1.82,1.82q0-4.53-9.08-10.89-3.64,0-3.63-5.45l-5.45,3.63h-1.81q3.63-11.8,3.63-16.34a1.6,1.6,0,0,1-1.82-1.81,1.61,1.61,0,0,0,1.82-1.82h-1.82l-9.08,1.82,1.82-3.63v-1.82h-1.82q0,5.45-3.63,5.45,0-7.26-3.63-7.26,0,5.45-3.63,5.45L800.55,769h-3.63v3.63q-2.72,0-5.45-9.08-1.82,0-10.89,7.26c-2.43,0-3.63-1.21-3.63-3.63V756.27l1.81-3.63H777q12.7-45.37,69-138,11.79-23.14,14.52-23.6,0-2.72,3.63-7.26V582q-74-12.7-87.13-12.71v1.82q-27.69,51.29-54.46,90.76-98.48,172.9-143.41,256-8.63,8.17-18.15,32.67a188.15,188.15,0,0,0-38.12,43.57l-10.89,7.26h-3.63q-3.63-23.6-5.45-23.6l1.82-3.63q-5.45-6.36-5.45-21.78v-20q5.45-49,14.52-101.66V816.18q0-5,83.5-157.93,0-14.06,43.57-88.95v-1.82a718.91,718.91,0,0,0-121.5,33.39q-10.67,8.42-10.67,12.89l-47.2,81.69q-48.11,79.88-96.21,174.27a4.83,4.83,0,0,1-1-.09c.22,1.15,0,3.52-1.51,8.06q-29,48.56-34.49,54.46H326.4v-1.82q-4.54,0-20,29-3.18.45-20,34.49-20.42,16.78-36.31,41.75l-10.89,7.26h-3.63q-3.64-23.6-5.45-23.6l1.81-3.63q-5.45-6.36-5.45-21.78v-20l9.08-72.61q-5.9,0-7.26-21.78l-1.11-6.15q0-5.89,69-127.07-43.12,28.59-157.93,92.58Q96.11,866.09,83.86,877q0,1.86-8.59,6.79C176.72,1068.66,373.22,1194,599,1194c329.71,0,597-267.29,597-597a594.54,594.54,0,0,0-61.75-264.71Q1122.26,353.88,1107.33,380.51Z"/><path d="M51.18,702.71H53q3.63-5.89,3.63-9.08Q53.45,693.64,51.18,702.71Z"/><path d="M515.56,856.11q0-3.18,3.63-9.08h-1.82l-5.45,9.08Z"/><path d="M521,845.22q3.64-5.9,3.63-9.08-3.17,0-5.45,9.08Z"/></svg>